<svg width="640" height="480" viewBox="0 0 640 480" xmlns="http://www.w3.org/2000/svg">
  <style type="text/css">
    polygon {
      fill: none;
      stroke: #FFFFFF;
      stroke-width: max(0.25px, calc(15.01px * 0.05));
    }

    path {
      fill: none;
      stroke: #FFFFFF;
      stroke-width: max(0.25px, calc(15.01px * 0.05));
    }
  </style>
  <g>
    <polygon points="363.0,-35.4641 367.0,-35.4641 369.0,-32.0 367.0,-28.5359 363.0,-28.5359 361.0,-32.0" />
    <polygon
      points="371.3333,-31.4226 378.6667,-31.4226 377.0,-28.5359 373.0,-28.5359 372.0,-26.8038 374.0,-23.3397 372.3333,-20.453 368.6667,-26.8038" />
    <polygon
      points="367.6667,-26.2265 371.3333,-19.8756 368.0,-19.8756 366.0,-23.3397 364.0,-23.3397 362.0,-19.8756 358.6667,-19.8756 362.3333,-26.2265" />
    <polygon
      points="361.3333,-26.8038 357.6667,-20.453 356.0,-23.3397 358.0,-26.8038 357.0,-28.5359 353.0,-28.5359 351.3333,-31.4226 358.6667,-31.4226" />
    <polygon
      points="358.6667,-32.5774 351.3333,-32.5774 353.0,-35.4641 357.0,-35.4641 358.0,-37.1962 356.0,-40.6603 357.6667,-43.547 361.3333,-37.1962" />
    <polygon
      points="362.3333,-37.7735 358.6667,-44.1244 362.0,-44.1244 364.0,-40.6603 366.0,-40.6603 368.0,-44.1244 371.3333,-44.1244 367.6667,-37.7735" />
    <polygon
      points="368.6667,-37.1962 372.3333,-43.547 374.0,-40.6603 372.0,-37.1962 373.0,-35.4641 377.0,-35.4641 378.6667,-32.5774 371.3333,-32.5774" />
    <polygon
      points="373.0,-35.4641 373.6667,-36.6188 377.6667,-36.6188 380.3333,-32.0 377.6667,-27.3812 373.6667,-27.3812 373.0,-28.5359 372.0,-26.8038 373.3333,-26.8038 375.3333,-23.3397 372.6667,-18.7209 367.3333,-18.7209 365.3333,-22.185 366.0,-23.3397 364.0,-23.3397 364.6667,-22.185 362.6667,-18.7209 357.3333,-18.7209 354.6667,-23.3397 356.6667,-26.8038 358.0,-26.8038 357.0,-28.5359 356.3333,-27.3812 352.3333,-27.3812 349.6667,-32.0 352.3333,-36.6188 356.3333,-36.6188 357.0,-35.4641 358.0,-37.1962 356.6667,-37.1962 354.6667,-40.6603 357.3333,-45.2791 362.6667,-45.2791 364.6667,-41.815 364.0,-40.6603 366.0,-40.6603 365.3333,-41.815 367.3333,-45.2791 372.6667,-45.2791 375.3333,-40.6603 373.3333,-37.1962 372.0,-37.1962 373.0,-35.4641" />
    <animateMotion path="m 0.0,0.0 l 0.0,544.0" dur="9000ms" repeatCount="indefinite" calcMode="linear"
      begin="-1112ms" />
    <animateTransform attributeName="transform" type="rotate" from="0 365.0 -32.0" to="-360 365.0 -32.0" dur="7413ms"
      repeatCount="indefinite" />
  </g>
  <g>
    <path
      d="M 567.75,-31.5 L 573.2045,-31.5 L 571.8409,-33.8619 M 573.2045,-31.5 L 571.8409,-29.1381 M 573.2045,-31.5 L 576.8409,-31.5 L 574.5682,-35.4365 M 576.8409,-31.5 L 574.5682,-27.5635 M 576.8409,-31.5 L 588.6591,-31.5 L 590.9318,-35.4365 M 588.6591,-31.5 L 590.9318,-27.5635 M 588.6591,-31.5 L 592.2955,-31.5 L 593.6591,-33.8619 M 592.2955,-31.5 L 593.6591,-29.1381 M 592.2955,-31.5 L 597.75,-31.5 M 575.25,-44.4904 L 577.9773,-39.7666 L 579.3409,-42.1285 M 577.9773,-39.7666 L 575.25,-39.7666 M 577.9773,-39.7666 L 579.7955,-36.6174 L 582.0682,-40.5539 M 579.7955,-36.6174 L 575.25,-36.6174 M 579.7955,-36.6174 L 585.7045,-26.3826 L 590.25,-26.3826 M 585.7045,-26.3826 L 583.4318,-22.4461 M 585.7045,-26.3826 L 587.5227,-23.2334 L 590.25,-23.2334 M 587.5227,-23.2334 L 586.1591,-20.8715 M 587.5227,-23.2334 L 590.25,-18.5096 M 575.25,-18.5096 L 577.9773,-23.2334 L 575.25,-23.2334 M 577.9773,-23.2334 L 579.3409,-20.8715 M 577.9773,-23.2334 L 579.7955,-26.3826 L 575.25,-26.3826 M 579.7955,-26.3826 L 582.0682,-22.4461 M 579.7955,-26.3826 L 585.7045,-36.6174 L 583.4318,-40.5539 M 585.7045,-36.6174 L 590.25,-36.6174 M 585.7045,-36.6174 L 587.5227,-39.7666 L 586.1591,-42.1285 M 587.5227,-39.7666 L 590.25,-39.7666 M 587.5227,-39.7666 L 590.25,-44.4904" />
    <animateMotion path="m 0.0,0.0 l 0.0,543.0" dur="8750ms" repeatCount="indefinite" calcMode="linear"
      begin="-1239ms" />
    <animateTransform attributeName="transform" type="rotate" from="0 582.75 -31.5" to="360 582.75 -31.5" dur="8019ms"
      repeatCount="indefinite" />
  </g>
  <g>
    <polygon points="78.95,-33.3689 82.45,-33.3689 85.95,-27.3067 84.2,-24.2756 77.2,-24.2756 75.45,-27.3067" />
    <polygon
      points="81.575,-37.9155 83.325,-40.9466 86.825,-40.9466 88.575,-37.9155 86.825,-34.8845 89.45,-30.3378 92.95,-30.3378 94.7,-27.3067 92.95,-24.2756 89.45,-24.2756 88.575,-22.7601 90.325,-19.729 88.575,-16.6979 85.075,-16.6979 83.325,-19.729 78.075,-19.729 76.325,-16.6979 72.825,-16.6979 71.075,-19.729 72.825,-22.7601 71.95,-24.2756 68.45,-24.2756 66.7,-27.3067 68.45,-30.3378 71.95,-30.3378 74.575,-34.8845 72.825,-37.9155 74.575,-40.9466 78.075,-40.9466 79.825,-37.9155" />
    <polygon
      points="82.45,-42.4622 87.7,-42.4622 90.325,-37.9155 88.4034,-34.5872 86.825,-34.8845 89.45,-30.3378 89.9817,-31.8534 93.825,-31.8534 96.45,-27.3067 93.825,-22.7601 89.8945,-23.0086 92.075,-19.729 89.45,-15.1824 84.2,-15.1824 82.2784,-18.5107 83.325,-19.729 78.075,-19.729 79.1216,-18.5107 77.2,-15.1824 71.95,-15.1824 69.325,-19.729 71.5055,-23.0086 67.575,-22.7601 64.95,-27.3067 67.575,-31.8534 71.4183,-31.8534 71.95,-30.3378 74.575,-34.8845 72.9966,-34.5872 71.075,-37.9155 73.7,-42.4622 78.95,-42.4622 80.7,-38.934" />
    <animateMotion path="m 0.0,0.0 l 0.0,538.8" dur="8500ms" repeatCount="indefinite" calcMode="linear"
      begin="-1375ms" />
    <animateTransform attributeName="transform" type="rotate" from="0 80.7 -29.4" to="-360 80.7 -29.4" dur="9263ms"
      repeatCount="indefinite" />
  </g>
  <g>
    <polygon points="259.5,-44.3301 264.5,-44.3301 267.0,-40.0 264.5,-35.6699 259.5,-35.6699 257.0,-40.0" />
    <polygon
      points="269.9167,-39.2783 279.0833,-39.2783 277.0,-35.6699 272.0,-35.6699 270.75,-33.5048 273.25,-29.1747 271.1667,-25.5662 266.5833,-33.5048" />
    <polygon
      points="265.3333,-32.7831 269.9167,-24.8446 265.75,-24.8446 263.25,-29.1747 260.75,-29.1747 258.25,-24.8446 254.0833,-24.8446 258.6667,-32.7831" />
    <polygon
      points="257.4167,-33.5048 252.8333,-25.5662 250.75,-29.1747 253.25,-33.5048 252.0,-35.6699 247.0,-35.6699 244.9167,-39.2783 254.0833,-39.2783" />
    <polygon
      points="254.0833,-40.7217 244.9167,-40.7217 247.0,-44.3301 252.0,-44.3301 253.25,-46.4952 250.75,-50.8253 252.8333,-54.4338 257.4167,-46.4952" />
    <polygon
      points="258.6667,-47.2169 254.0833,-55.1554 258.25,-55.1554 260.75,-50.8253 263.25,-50.8253 265.75,-55.1554 269.9167,-55.1554 265.3333,-47.2169" />
    <polygon
      points="266.5833,-46.4952 271.1667,-54.4338 273.25,-50.8253 270.75,-46.4952 272.0,-44.3301 277.0,-44.3301 279.0833,-40.7217 269.9167,-40.7217" />
    <polygon
      points="272.0,-44.3301 272.8333,-45.7735 277.8333,-45.7735 281.1667,-40.0 277.8333,-34.2265 272.8333,-34.2265 272.0,-35.6699 270.75,-33.5048 272.4167,-33.5048 274.9167,-29.1747 271.5833,-23.4012 264.9167,-23.4012 262.4167,-27.7313 263.25,-29.1747 260.75,-29.1747 261.5833,-27.7313 259.0833,-23.4012 252.4167,-23.4012 249.0833,-29.1747 251.5833,-33.5048 253.25,-33.5048 252.0,-35.6699 251.1667,-34.2265 246.1667,-34.2265 242.8333,-40.0 246.1667,-45.7735 251.1667,-45.7735 252.0,-44.3301 253.25,-46.4952 251.5833,-46.4952 249.0833,-50.8253 252.4167,-56.5988 259.0833,-56.5988 261.5833,-52.2687 260.75,-50.8253 263.25,-50.8253 262.4167,-52.2687 264.9167,-56.5988 271.5833,-56.5988 274.9167,-50.8253 272.4167,-46.4952 270.75,-46.4952 272.0,-44.3301" />
    <animateMotion path="m 0.0,0.0 l 0.0,560.0" dur="10000ms" repeatCount="indefinite" calcMode="linear"
      begin="4389ms" />
    <animateTransform attributeName="transform" type="rotate" from="0 262.0 -40.0" to="360 262.0 -40.0" dur="8392ms"
      repeatCount="indefinite" />
  </g>
  <g>
    <path
      d="M 142.65,-27.3 L 147.3773,-27.3 L 146.1955,-29.347 M 147.3773,-27.3 L 146.1955,-25.253 M 147.3773,-27.3 L 150.5288,-27.3 L 148.5591,-30.7116 M 150.5288,-27.3 L 148.5591,-23.8884 M 150.5288,-27.3 L 160.7712,-27.3 L 162.7409,-30.7116 M 160.7712,-27.3 L 162.7409,-23.8884 M 160.7712,-27.3 L 163.9227,-27.3 L 165.1045,-29.347 M 163.9227,-27.3 L 165.1045,-25.253 M 163.9227,-27.3 L 168.65,-27.3 M 149.15,-38.5583 L 151.5136,-34.4644 L 152.6955,-36.5114 M 151.5136,-34.4644 L 149.15,-34.4644 M 151.5136,-34.4644 L 153.0894,-31.7351 L 155.0591,-35.1467 M 153.0894,-31.7351 L 149.15,-31.7351 M 153.0894,-31.7351 L 158.2106,-22.8649 L 162.15,-22.8649 M 158.2106,-22.8649 L 156.2409,-19.4533 M 158.2106,-22.8649 L 159.7864,-20.1356 L 162.15,-20.1356 M 159.7864,-20.1356 L 158.6045,-18.0886 M 159.7864,-20.1356 L 162.15,-16.0417 M 149.15,-16.0417 L 151.5136,-20.1356 L 149.15,-20.1356 M 151.5136,-20.1356 L 152.6955,-18.0886 M 151.5136,-20.1356 L 153.0894,-22.8649 L 149.15,-22.8649 M 153.0894,-22.8649 L 155.0591,-19.4533 M 153.0894,-22.8649 L 158.2106,-31.7351 L 156.2409,-35.1467 M 158.2106,-31.7351 L 162.15,-31.7351 M 158.2106,-31.7351 L 159.7864,-34.4644 L 158.6045,-36.5114 M 159.7864,-34.4644 L 162.15,-34.4644 M 159.7864,-34.4644 L 162.15,-38.5583" />
    <animateMotion path="m 0.0,0.0 l 0.0,534.6" dur="8250ms" repeatCount="indefinite" calcMode="linear"
      begin="5879ms" />
    <animateTransform attributeName="transform" type="rotate" from="0 155.65 -27.3" to="-360 155.65 -27.3" dur="9594ms"
      repeatCount="indefinite" />
  </g>
  <g>
    <polygon points="446.8,-38.1359 450.8,-38.1359 454.8,-31.2077 452.8,-27.7436 444.8,-27.7436 442.8,-31.2077" />
    <polygon
      points="449.8,-43.3321 451.8,-46.7962 455.8,-46.7962 457.8,-43.3321 455.8,-39.8679 458.8,-34.6718 462.8,-34.6718 464.8,-31.2077 462.8,-27.7436 458.8,-27.7436 457.8,-26.0115 459.8,-22.5474 457.8,-19.0833 453.8,-19.0833 451.8,-22.5474 445.8,-22.5474 443.8,-19.0833 439.8,-19.0833 437.8,-22.5474 439.8,-26.0115 438.8,-27.7436 434.8,-27.7436 432.8,-31.2077 434.8,-34.6718 438.8,-34.6718 441.8,-39.8679 439.8,-43.3321 441.8,-46.7962 445.8,-46.7962 447.8,-43.3321" />
    <polygon
      points="450.8,-48.5282 456.8,-48.5282 459.8,-43.3321 457.6038,-39.5282 455.8,-39.8679 458.8,-34.6718 459.4077,-36.4038 463.8,-36.4038 466.8,-31.2077 463.8,-26.0115 459.308,-26.2956 461.8,-22.5474 458.8,-17.3513 452.8,-17.3513 450.6038,-21.1551 451.8,-22.5474 445.8,-22.5474 446.9962,-21.1551 444.8,-17.3513 438.8,-17.3513 435.8,-22.5474 438.292,-26.2956 433.8,-26.0115 430.8,-31.2077 433.8,-36.4038 438.1923,-36.4038 438.8,-34.6718 441.8,-39.8679 439.9962,-39.5282 437.8,-43.3321 440.8,-48.5282 446.8,-48.5282 448.8,-44.496" />
    <animateMotion path="m 0.0,0.0 l 0.0,547.2" dur="9000ms" repeatCount="indefinite" calcMode="linear"
      begin="5449ms" />
    <animateTransform attributeName="transform" type="rotate" from="0 448.8 -33.6" to="360 448.8 -33.6" dur="9980ms"
      repeatCount="indefinite" />
  </g>
  <g>
    <polygon points="549.0,-17.7321 551.0,-17.7321 552.0,-16.0 551.0,-14.2679 549.0,-14.2679 548.0,-16.0" />
    <polygon
      points="553.1667,-15.7113 556.8333,-15.7113 556.0,-14.2679 554.0,-14.2679 553.5,-13.4019 554.5,-11.6699 553.6667,-10.2265 551.8333,-13.4019" />
    <polygon
      points="551.3333,-13.1132 553.1667,-9.9378 551.5,-9.9378 550.5,-11.6699 549.5,-11.6699 548.5,-9.9378 546.8333,-9.9378 548.6667,-13.1132" />
    <polygon
      points="548.1667,-13.4019 546.3333,-10.2265 545.5,-11.6699 546.5,-13.4019 546.0,-14.2679 544.0,-14.2679 543.1667,-15.7113 546.8333,-15.7113" />
    <polygon
      points="546.8333,-16.2887 543.1667,-16.2887 544.0,-17.7321 546.0,-17.7321 546.5,-18.5981 545.5,-20.3301 546.3333,-21.7735 548.1667,-18.5981" />
    <polygon
      points="548.6667,-18.8868 546.8333,-22.0622 548.5,-22.0622 549.5,-20.3301 550.5,-20.3301 551.5,-22.0622 553.1667,-22.0622 551.3333,-18.8868" />
    <polygon
      points="551.8333,-18.5981 553.6667,-21.7735 554.5,-20.3301 553.5,-18.5981 554.0,-17.7321 556.0,-17.7321 556.8333,-16.2887 553.1667,-16.2887" />
    <polygon
      points="554.0,-17.7321 554.3333,-18.3094 556.3333,-18.3094 557.6667,-16.0 556.3333,-13.6906 554.3333,-13.6906 554.0,-14.2679 553.5,-13.4019 554.1667,-13.4019 555.1667,-11.6699 553.8333,-9.3605 551.1667,-9.3605 550.1667,-11.0925 550.5,-11.6699 549.5,-11.6699 549.8333,-11.0925 548.8333,-9.3605 546.1667,-9.3605 544.8333,-11.6699 545.8333,-13.4019 546.5,-13.4019 546.0,-14.2679 545.6667,-13.6906 543.6667,-13.6906 542.3333,-16.0 543.6667,-18.3094 545.6667,-18.3094 546.0,-17.7321 546.5,-18.5981 545.8333,-18.5981 544.8333,-20.3301 546.1667,-22.6395 548.8333,-22.6395 549.8333,-20.9075 549.5,-20.3301 550.5,-20.3301 550.1667,-20.9075 551.1667,-22.6395 553.8333,-22.6395 555.1667,-20.3301 554.1667,-18.5981 553.5,-18.5981 554.0,-17.7321" />
    <animateMotion path="m 0.0,0.0 l 0.0,512.0" dur="7000ms" repeatCount="indefinite" calcMode="linear"
      begin="2591ms" />
    <animateTransform attributeName="transform" type="rotate" from="0 550.0 -16.0" to="360 550.0 -16.0" dur="9585ms"
      repeatCount="indefinite" />
  </g>
  <g>
    <path
      d="M 483.85,-35.7 L 490.0318,-35.7 L 488.4864,-38.3768 M 490.0318,-35.7 L 488.4864,-33.0232 M 490.0318,-35.7 L 494.153,-35.7 L 491.5773,-40.1613 M 494.153,-35.7 L 491.5773,-31.2387 M 494.153,-35.7 L 507.547,-35.7 L 510.1227,-40.1613 M 507.547,-35.7 L 510.1227,-31.2387 M 507.547,-35.7 L 511.6682,-35.7 L 513.2136,-38.3768 M 511.6682,-35.7 L 513.2136,-33.0232 M 511.6682,-35.7 L 517.85,-35.7 M 492.35,-50.4224 L 495.4409,-45.0688 L 496.9864,-47.7456 M 495.4409,-45.0688 L 492.35,-45.0688 M 495.4409,-45.0688 L 497.5015,-41.4997 L 500.0773,-45.9611 M 497.5015,-41.4997 L 492.35,-41.4997 M 497.5015,-41.4997 L 504.1985,-29.9003 L 509.35,-29.9003 M 504.1985,-29.9003 L 501.6227,-25.4389 M 504.1985,-29.9003 L 506.2591,-26.3312 L 509.35,-26.3312 M 506.2591,-26.3312 L 504.7136,-23.6544 M 506.2591,-26.3312 L 509.35,-20.9776 M 492.35,-20.9776 L 495.4409,-26.3312 L 492.35,-26.3312 M 495.4409,-26.3312 L 496.9864,-23.6544 M 495.4409,-26.3312 L 497.5015,-29.9003 L 492.35,-29.9003 M 497.5015,-29.9003 L 500.0773,-25.4389 M 497.5015,-29.9003 L 504.1985,-41.4997 L 501.6227,-45.9611 M 504.1985,-41.4997 L 509.35,-41.4997 M 504.1985,-41.4997 L 506.2591,-45.0688 L 504.7136,-47.7456 M 506.2591,-45.0688 L 509.35,-45.0688 M 506.2591,-45.0688 L 509.35,-50.4224" />
    <animateMotion path="m 0.0,0.0 l 0.0,551.4" dur="9250ms" repeatCount="indefinite" calcMode="linear"
      begin="2794ms" />
    <animateTransform attributeName="transform" type="rotate" from="0 500.85 -35.7" to="-360 500.85 -35.7" dur="6671ms"
      repeatCount="indefinite" />
  </g>
  <g>
    <polygon
      points="321.025,-30.9854 324.275,-30.9854 327.525,-25.3563 325.9,-22.5417 319.4,-22.5417 317.775,-25.3563" />
    <polygon
      points="323.4625,-35.2073 325.0875,-38.0219 328.3375,-38.0219 329.9625,-35.2073 328.3375,-32.3927 330.775,-28.1708 334.025,-28.1708 335.65,-25.3563 334.025,-22.5417 330.775,-22.5417 329.9625,-21.1344 331.5875,-18.3198 329.9625,-15.5052 326.7125,-15.5052 325.0875,-18.3198 320.2125,-18.3198 318.5875,-15.5052 315.3375,-15.5052 313.7125,-18.3198 315.3375,-21.1344 314.525,-22.5417 311.275,-22.5417 309.65,-25.3563 311.275,-28.1708 314.525,-28.1708 316.9625,-32.3927 315.3375,-35.2073 316.9625,-38.0219 320.2125,-38.0219 321.8375,-35.2073" />
    <polygon
      points="324.275,-39.4292 329.15,-39.4292 331.5875,-35.2073 329.8031,-32.1167 328.3375,-32.3927 330.775,-28.1708 331.2688,-29.5781 334.8375,-29.5781 337.275,-25.3563 334.8375,-21.1344 331.1878,-21.3652 333.2125,-18.3198 330.775,-14.0979 325.9,-14.0979 324.1156,-17.1885 325.0875,-18.3198 320.2125,-18.3198 321.1844,-17.1885 319.4,-14.0979 314.525,-14.0979 312.0875,-18.3198 314.1122,-21.3652 310.4625,-21.1344 308.025,-25.3563 310.4625,-29.5781 314.0312,-29.5781 314.525,-28.1708 316.9625,-32.3927 315.4969,-32.1167 313.7125,-35.2073 316.15,-39.4292 321.025,-39.4292 322.65,-36.153" />
    <animateMotion path="m 0.0,0.0 l 0.0,534.6" dur="8250ms" repeatCount="indefinite" calcMode="linear"
      begin="2555ms" />
    <animateTransform attributeName="transform" type="rotate" from="0 322.65 -27.3" to="360 322.65 -27.3" dur="8243ms"
      repeatCount="indefinite" />
  </g>
  <g>
    <polygon points="116.5,-44.3301 121.5,-44.3301 124.0,-40.0 121.5,-35.6699 116.5,-35.6699 114.0,-40.0" />
    <polygon
      points="126.9167,-39.2783 136.0833,-39.2783 134.0,-35.6699 129.0,-35.6699 127.75,-33.5048 130.25,-29.1747 128.1667,-25.5662 123.5833,-33.5048" />
    <polygon
      points="122.3333,-32.7831 126.9167,-24.8446 122.75,-24.8446 120.25,-29.1747 117.75,-29.1747 115.25,-24.8446 111.0833,-24.8446 115.6667,-32.7831" />
    <polygon
      points="114.4167,-33.5048 109.8333,-25.5662 107.75,-29.1747 110.25,-33.5048 109.0,-35.6699 104.0,-35.6699 101.9167,-39.2783 111.0833,-39.2783" />
    <polygon
      points="111.0833,-40.7217 101.9167,-40.7217 104.0,-44.3301 109.0,-44.3301 110.25,-46.4952 107.75,-50.8253 109.8333,-54.4338 114.4167,-46.4952" />
    <polygon
      points="115.6667,-47.2169 111.0833,-55.1554 115.25,-55.1554 117.75,-50.8253 120.25,-50.8253 122.75,-55.1554 126.9167,-55.1554 122.3333,-47.2169" />
    <polygon
      points="123.5833,-46.4952 128.1667,-54.4338 130.25,-50.8253 127.75,-46.4952 129.0,-44.3301 134.0,-44.3301 136.0833,-40.7217 126.9167,-40.7217" />
    <polygon
      points="129.0,-44.3301 129.8333,-45.7735 134.8333,-45.7735 138.1667,-40.0 134.8333,-34.2265 129.8333,-34.2265 129.0,-35.6699 127.75,-33.5048 129.4167,-33.5048 131.9167,-29.1747 128.5833,-23.4012 121.9167,-23.4012 119.4167,-27.7313 120.25,-29.1747 117.75,-29.1747 118.5833,-27.7313 116.0833,-23.4012 109.4167,-23.4012 106.0833,-29.1747 108.5833,-33.5048 110.25,-33.5048 109.0,-35.6699 108.1667,-34.2265 103.1667,-34.2265 99.8333,-40.0 103.1667,-45.7735 108.1667,-45.7735 109.0,-44.3301 110.25,-46.4952 108.5833,-46.4952 106.0833,-50.8253 109.4167,-56.5988 116.0833,-56.5988 118.5833,-52.2687 117.75,-50.8253 120.25,-50.8253 119.4167,-52.2687 121.9167,-56.5988 128.5833,-56.5988 131.9167,-50.8253 129.4167,-46.4952 127.75,-46.4952 129.0,-44.3301" />
    <animateMotion path="m 0.0,0.0 l 0.0,560.0" dur="10000ms" repeatCount="indefinite" calcMode="linear"
      begin="4142ms" />
    <animateTransform attributeName="transform" type="rotate" from="0 119.0 -40.0" to="-360 119.0 -40.0" dur="6646ms"
      repeatCount="indefinite" />
  </g>
  <g>
    <path
      d="M 200.75,-31.5 L 206.2045,-31.5 L 204.8409,-33.8619 M 206.2045,-31.5 L 204.8409,-29.1381 M 206.2045,-31.5 L 209.8409,-31.5 L 207.5682,-35.4365 M 209.8409,-31.5 L 207.5682,-27.5635 M 209.8409,-31.5 L 221.6591,-31.5 L 223.9318,-35.4365 M 221.6591,-31.5 L 223.9318,-27.5635 M 221.6591,-31.5 L 225.2955,-31.5 L 226.6591,-33.8619 M 225.2955,-31.5 L 226.6591,-29.1381 M 225.2955,-31.5 L 230.75,-31.5 M 208.25,-44.4904 L 210.9773,-39.7666 L 212.3409,-42.1285 M 210.9773,-39.7666 L 208.25,-39.7666 M 210.9773,-39.7666 L 212.7955,-36.6174 L 215.0682,-40.5539 M 212.7955,-36.6174 L 208.25,-36.6174 M 212.7955,-36.6174 L 218.7045,-26.3826 L 223.25,-26.3826 M 218.7045,-26.3826 L 216.4318,-22.4461 M 218.7045,-26.3826 L 220.5227,-23.2334 L 223.25,-23.2334 M 220.5227,-23.2334 L 219.1591,-20.8715 M 220.5227,-23.2334 L 223.25,-18.5096 M 208.25,-18.5096 L 210.9773,-23.2334 L 208.25,-23.2334 M 210.9773,-23.2334 L 212.3409,-20.8715 M 210.9773,-23.2334 L 212.7955,-26.3826 L 208.25,-26.3826 M 212.7955,-26.3826 L 215.0682,-22.4461 M 212.7955,-26.3826 L 218.7045,-36.6174 L 216.4318,-40.5539 M 218.7045,-36.6174 L 223.25,-36.6174 M 218.7045,-36.6174 L 220.5227,-39.7666 L 219.1591,-42.1285 M 220.5227,-39.7666 L 223.25,-39.7666 M 220.5227,-39.7666 L 223.25,-44.4904" />
    <animateMotion path="m 0.0,0.0 l 0.0,543.0" dur="8750ms" repeatCount="indefinite" calcMode="linear"
      begin="2252ms" />
    <animateTransform attributeName="transform" type="rotate" from="0 215.75 -31.5" to="360 215.75 -31.5" dur="5674ms"
      repeatCount="indefinite" />
  </g>
  <g>
    <polygon points="398.1,-28.6019 401.1,-28.6019 404.1,-23.4058 402.6,-20.8077 396.6,-20.8077 395.1,-23.4058" />
    <polygon
      points="400.35,-32.499 401.85,-35.0971 404.85,-35.0971 406.35,-32.499 404.85,-29.901 407.1,-26.0038 410.1,-26.0038 411.6,-23.4058 410.1,-20.8077 407.1,-20.8077 406.35,-19.5087 407.85,-16.9106 406.35,-14.3125 403.35,-14.3125 401.85,-16.9106 397.35,-16.9106 395.85,-14.3125 392.85,-14.3125 391.35,-16.9106 392.85,-19.5087 392.1,-20.8077 389.1,-20.8077 387.6,-23.4058 389.1,-26.0038 392.1,-26.0038 394.35,-29.901 392.85,-32.499 394.35,-35.0971 397.35,-35.0971 398.85,-32.499" />
    <polygon
      points="401.1,-36.3962 405.6,-36.3962 407.85,-32.499 406.2029,-29.6462 404.85,-29.901 407.1,-26.0038 407.5558,-27.3029 410.85,-27.3029 413.1,-23.4058 410.85,-19.5087 407.481,-19.7217 409.35,-16.9106 407.1,-13.0135 402.6,-13.0135 400.9529,-15.8664 401.85,-16.9106 397.35,-16.9106 398.2471,-15.8664 396.6,-13.0135 392.1,-13.0135 389.85,-16.9106 391.719,-19.7217 388.35,-19.5087 386.1,-23.4058 388.35,-27.3029 391.6442,-27.3029 392.1,-26.0038 394.35,-29.901 392.9971,-29.6462 391.35,-32.499 393.6,-36.3962 398.1,-36.3962 399.6,-33.372" />
    <animateMotion path="m 0.0,0.0 l 0.0,530.4" dur="8000ms" repeatCount="indefinite" calcMode="linear"
      begin="5117ms" />
    <animateTransform attributeName="transform" type="rotate" from="0 399.6 -25.2" to="-360 399.6 -25.2" dur="8838ms"
      repeatCount="indefinite" />
  </g>
</svg>